<svg width="20" height="20" viewBox="0 0 20 20" fill="none" xmlns="http://www.w3.org/2000/svg">
<g clip-path="url(#clip0_26_1668)">
<path d="M1.6665 5.00002C1.6665 4.11597 2.01769 3.26812 2.64281 2.643C3.26794 2.01788 4.11578 1.66669 4.99984 1.66669H14.9998C15.8839 1.66669 16.7317 2.01788 17.3569 2.643C17.982 3.26812 18.3332 4.11597 18.3332 5.00002V15C18.3332 15.8841 17.982 16.7319 17.3569 17.357C16.7317 17.9822 15.8839 18.3334 14.9998 18.3334H4.99984C4.11578 18.3334 3.26794 17.9822 2.64281 17.357C2.01769 16.7319 1.6665 15.8841 1.6665 15V5.00002Z" stroke="#FF5C1F" stroke-width="1.75" stroke-linecap="round" stroke-linejoin="round"/>
<path d="M7.08333 9.16667C8.23393 9.16667 9.16667 8.23393 9.16667 7.08333C9.16667 5.93274 8.23393 5 7.08333 5C5.93274 5 5 5.93274 5 7.08333C5 8.23393 5.93274 9.16667 7.08333 9.16667Z" stroke="#FF5C1F" stroke-width="1.75" stroke-linecap="round" stroke-linejoin="round"/>
<path d="M12.105 10.5175L5 18.3333H15.1108C15.9655 18.3333 16.7851 17.9938 17.3895 17.3894C17.9938 16.7851 18.3333 15.9655 18.3333 15.1108V15C18.3333 14.6116 18.1875 14.4625 17.925 14.175L14.5667 10.5125C14.4101 10.3417 14.2198 10.2055 14.0076 10.1124C13.7955 10.0194 13.5664 9.97158 13.3347 9.97205C13.1031 9.97252 12.8741 10.0213 12.6624 10.1152C12.4507 10.2091 12.2608 10.3461 12.105 10.5175V10.5175Z" stroke="#FF5C1F" stroke-width="1.75" stroke-linecap="round" stroke-linejoin="round"/>
</g>
<defs>
<clipPath id="clip0_26_1668">
<rect width="20" height="20" fill="white"/>
</clipPath>
</defs>
</svg>
