<svg width="17" height="20" viewBox="0 0 17 20" fill="none" xmlns="http://www.w3.org/2000/svg">
<path d="M16.1322 13.9885L15.3695 12.6975C14.9059 11.9177 14.6642 11.057 14.6637 10.1841V7.55394C14.6622 6.21669 14.0846 4.9258 13.0391 3.92326C11.9935 2.92073 10.5519 2.27539 8.9844 2.10824V0.686722C8.9844 0.504592 8.89892 0.329921 8.74677 0.201136C8.59462 0.0723508 8.38825 0 8.17308 0C7.9579 0 7.75154 0.0723508 7.59938 0.201136C7.44723 0.329921 7.36175 0.504592 7.36175 0.686722V2.10824C5.79425 2.27539 4.35261 2.92073 3.30707 3.92326C2.26154 4.9258 1.68391 6.21669 1.68248 7.55394V10.1841C1.68198 11.057 1.44026 11.9177 0.976623 12.6975L0.213978 13.9885C0.0590572 14.2515 -0.0138539 14.5437 0.00217058 14.8372C0.0181951 15.1308 0.122623 15.416 0.305534 15.6657C0.488446 15.9155 0.743766 16.1216 1.04724 16.2643C1.35072 16.4071 1.69227 16.4818 2.03946 16.4813H4.16513C4.32581 17.2728 4.82097 17.9878 5.55834 18.4932C6.29572 18.9986 7.22502 19.2598 8.17308 19.2282C9.12114 19.2598 10.0504 18.9986 10.7878 18.4932C11.5252 17.9878 12.0203 17.2728 12.181 16.4813H14.3067C14.6539 16.4818 14.9954 16.4071 15.2989 16.2643C15.6024 16.1216 15.8577 15.9155 16.0406 15.6657C16.2235 15.416 16.328 15.1308 16.344 14.8372C16.36 14.5437 16.2871 14.2515 16.1322 13.9885ZM8.17308 17.8548C7.65231 17.88 7.13625 17.7591 6.70496 17.5108C6.27367 17.2625 5.95127 16.9006 5.78778 16.4813H10.5584C10.3949 16.9006 10.0725 17.2625 9.64119 17.5108C9.2099 17.7591 8.69384 17.88 8.17308 17.8548Z" fill="#A8A8A8"/>
</svg>
