<svg width="23" height="20" viewBox="0 0 23 20" fill="none" xmlns="http://www.w3.org/2000/svg">
<path d="M22.6955 18.1235L18.3016 2.23776C17.9403 0.920746 16.7165 0 15.3296 0C15.2829 0 15.248 0.02331 15.2014 0.02331C15.1198 0.02331 15.0498 0 14.9683 0H7.25264C6.04052 0 4.9566 0.815851 4.63026 1.99301L1.12211 14.6154L0.0381898 18.1002C-0.10167 18.5664 0.15474 19.0559 0.609285 19.1958C0.69087 19.2191 0.784111 19.2308 0.865696 19.2308C1.23866 19.2308 1.58831 18.986 1.70486 18.6131L2.60229 15.7343H11.8564L11.3202 17.8788C11.2037 18.345 11.4834 18.8228 11.9613 18.9394C12.0312 18.9627 12.1011 18.9627 12.1711 18.9627C12.5673 18.9627 12.917 18.6946 13.0219 18.2984L13.8261 15.0699C13.861 14.9184 13.8494 14.7786 13.8144 14.6387L16.868 3.62471L21.0172 18.5897C21.1221 18.9744 21.4718 19.2308 21.8564 19.2308C21.938 19.2308 22.0079 19.2308 22.0895 19.1958C22.5557 19.0676 22.8237 18.5897 22.6955 18.1235ZM7.87036 4.662H11.3669C11.8447 4.662 12.241 5.05828 12.241 5.53613C12.241 6.01399 11.8447 6.41026 11.3669 6.41026H7.87036C7.3925 6.41026 6.99623 6.01399 6.99623 5.53613C6.99623 5.05828 7.3925 4.662 7.87036 4.662ZM6.70486 9.90676C6.227 9.90676 5.83073 9.51049 5.83073 9.03263C5.83073 8.55478 6.227 8.15851 6.70486 8.15851H11.3669C11.8447 8.15851 12.241 8.55478 12.241 9.03263C12.241 9.51049 11.8447 9.90676 11.3669 9.90676H6.70486Z" fill="#A8A8A8"/>
</svg>
