<svg width="12" height="14" viewBox="0 0 12 14" fill="none" xmlns="http://www.w3.org/2000/svg">
<path d="M11.6556 8.08041C11.6556 7.50129 11.3227 6.9954 10.8368 6.74245C10.9367 6.54275 10.9899 6.31643 10.9899 6.08345C10.9899 5.25804 10.3176 4.58574 9.4922 4.58574H6.33035V2.92826C6.33035 2.02963 5.88437 1.19091 5.13218 0.69167C4.77938 0.452036 4.32008 0.432066 3.94066 0.631762C3.56124 0.831457 3.32826 1.22419 3.32826 1.65021V3.44081C3.32826 4.15306 2.82237 4.77212 2.12343 4.9119C0.891974 5.1582 0 6.24987 0 7.50129V9.658C0 10.7164 0.625713 11.6683 1.60422 12.0876L3.70768 12.9929C4.60631 13.379 5.55154 13.572 6.52339 13.572H8.15424C8.97965 13.572 9.65196 12.8997 9.65196 12.0743C9.65196 11.9013 9.61867 11.7282 9.56542 11.5751C10.3575 11.5351 10.9833 10.8761 10.9833 10.0774C10.9833 9.83773 10.93 9.61807 10.8302 9.41837C11.3161 9.17208 11.6489 8.66618 11.6489 8.08041H11.6556ZM10.1579 8.57965H7.16242C6.8895 8.57965 6.66318 8.80597 6.66318 9.07889C6.66318 9.3518 6.8895 9.57813 7.16242 9.57813H9.4922C9.76512 9.57813 9.99144 9.80445 9.99144 10.0774C9.99144 10.3503 9.76512 10.5766 9.4922 10.5766H7.16242C6.8895 10.5766 6.66318 10.8029 6.66318 11.0758C6.66318 11.3488 6.8895 11.5751 7.16242 11.5751H8.1609C8.43381 11.5751 8.66013 11.8014 8.66013 12.0743C8.66013 12.3472 8.43381 12.5736 8.1609 12.5736H6.53005C5.69133 12.5736 4.87257 12.4071 4.10707 12.0743L2.00361 11.169C1.39787 10.9094 1.00513 10.317 1.00513 9.658V7.50129C1.00513 6.72248 1.55763 6.04351 2.32978 5.89041C3.49467 5.65744 4.3334 4.62567 4.3334 3.44081V1.65687C4.3334 1.57033 4.38665 1.53039 4.41993 1.51708C4.4399 1.51042 4.46653 1.49711 4.49315 1.49711C4.51978 1.49711 4.5464 1.49711 4.57969 1.52374C5.0523 1.83659 5.33187 2.36246 5.33187 2.92826V5.08497C5.33187 5.35789 5.5582 5.58421 5.83111 5.58421H9.4922C9.76512 5.58421 9.99144 5.81054 9.99144 6.08345C9.99144 6.35637 9.76512 6.58269 9.4922 6.58269H7.16242C6.8895 6.58269 6.66318 6.80901 6.66318 7.08193C6.66318 7.35485 6.8895 7.58117 7.16242 7.58117H10.1579C10.4308 7.58117 10.6571 7.80749 10.6571 8.08041C10.6571 8.35333 10.4308 8.57965 10.1579 8.57965Z" fill="#FF5C1F"/>
</svg>
