<svg width="21" height="20" viewBox="0 0 21 20" fill="none" xmlns="http://www.w3.org/2000/svg">
<path d="M11.1354 4.4176H1.92656C1.25623 4.4176 0.640848 4.75826 0.2892 5.32969C-0.0624486 5.90112 -0.0954158 6.60442 0.201287 7.19782L1.37711 9.53848C1.47601 9.72529 1.51997 9.94508 1.51997 10.1539V16.2088C1.51997 17.8791 2.87162 19.2308 4.54195 19.2308H11.1354C12.8057 19.2308 14.1573 17.8791 14.1573 16.2088V7.43958C14.1573 5.76925 12.8057 4.4176 11.1354 4.4176ZM10.0365 14.8352H5.64085C5.1903 14.8352 4.81667 14.4616 4.81667 14.011C4.81667 13.5605 5.1903 13.1868 5.64085 13.1868H10.0365C10.487 13.1868 10.8606 13.5605 10.8606 14.011C10.8606 14.4616 10.487 14.8352 10.0365 14.8352ZM10.0365 10.4396H5.64085C5.1903 10.4396 4.81667 10.066 4.81667 9.6154C4.81667 9.16486 5.1903 8.79123 5.64085 8.79123H10.0365C10.487 8.79123 10.8606 9.16486 10.8606 9.6154C10.8606 10.066 10.487 10.4396 10.0365 10.4396Z" fill="#FF5C1F"/>
<path d="M19.7839 0.912088C19.4323 0.340659 18.8169 0 18.1465 0H8.93774C7.35533 0 6.06961 1.21978 5.93774 2.76923H11.1355C13.707 2.76923 15.8059 4.86813 15.8059 7.43956V14.8022C17.3443 14.6593 18.5531 13.3736 18.5531 11.8132V5.74725C18.5531 5.53846 18.6081 5.31868 18.696 5.13187L19.8718 2.79121C20.1685 2.18681 20.1355 1.49451 19.7839 0.923077V0.912088Z" fill="#FF5C1F"/>
</svg>
