<svg width="15" height="13" viewBox="0 0 15 13" fill="none" xmlns="http://www.w3.org/2000/svg">
<path d="M11.8263 0.592896H3.30202C1.83158 0.592896 0.638184 1.78629 0.638184 3.25673V11.0138C0.638184 11.4969 0.908119 11.9231 1.34144 12.1362C1.51192 12.2214 1.69661 12.2641 1.88131 12.2641C2.15835 12.2641 2.42828 12.1717 2.6556 11.987L4.27521 10.6942C4.68011 10.3674 5.19867 10.1898 5.71723 10.1898H11.8263C13.2967 10.1898 14.4901 8.99641 14.4901 7.52598V3.25673C14.4901 1.78629 13.2967 0.592896 11.8263 0.592896ZM13.4246 7.51887C13.4246 8.39971 12.7071 9.11717 11.8263 9.11717H5.71723C4.95715 9.11717 4.20417 9.38001 3.60747 9.85595L1.98786 11.1488C1.90972 11.2127 1.83869 11.1914 1.80317 11.1701C1.76765 11.1488 1.70372 11.1062 1.70372 11.0067V3.25673C1.70372 2.37589 2.42118 1.65843 3.30202 1.65843H11.8263C12.7071 1.65843 13.4246 2.37589 13.4246 3.25673V7.51887Z" fill="#A8A8A8"/>
</svg>
