<svg width="13" height="14" viewBox="0 0 13 14" fill="none" xmlns="http://www.w3.org/2000/svg">
<path d="M11.1711 7.4891C10.8982 7.4891 10.6719 7.71541 10.6719 7.98831V10.491C10.6719 11.769 9.63354 12.8141 8.34889 12.8141H3.34342C2.06543 12.8141 1.0204 11.7757 1.0204 10.491V5.47892C1.0204 4.20093 2.05877 3.1559 3.34342 3.1559H6.51178C6.78468 3.1559 7.01099 2.92959 7.01099 2.65669C7.01099 2.38378 6.78468 2.15747 6.51178 2.15747H3.34342C1.51296 2.15747 0.0219727 3.64846 0.0219727 5.47892V10.491C0.0219727 12.3215 1.51296 13.8125 3.34342 13.8125H8.35555C10.186 13.8125 11.677 12.3215 11.677 10.491V7.98831C11.677 7.71541 11.4507 7.4891 11.1778 7.4891H11.1711Z" fill="#A8A8A8"/>
<path d="M12.8541 3.09592L10.7374 0.979245C10.5444 0.786215 10.2249 0.786215 10.0318 0.979245C9.8388 1.17228 9.8388 1.49177 10.0318 1.6848L11.19 2.84298C8.75383 2.90955 6.57725 4.37391 5.6121 6.62371L4.99307 8.06811C4.88657 8.32105 4.99973 8.61392 5.25266 8.72042C5.31923 8.74704 5.38579 8.76036 5.44569 8.76036C5.63872 8.76036 5.8251 8.6472 5.90497 8.45417L6.524 7.00977C7.35603 5.07281 9.25305 3.82145 11.3564 3.82145H11.4097L10.0318 5.19928C9.8388 5.39231 9.8388 5.71181 10.0318 5.90484C10.1317 6.00468 10.2581 6.05128 10.3846 6.05128C10.5111 6.05128 10.6375 6.00468 10.7374 5.90484L12.8541 3.78817C12.9472 3.69498 13.0005 3.56851 13.0005 3.43539C13.0005 3.30226 12.9472 3.17579 12.8541 3.08261V3.09592Z" fill="#A8A8A8"/>
</svg>
