<svg width="20" height="20" viewBox="0 0 20 20" fill="none" xmlns="http://www.w3.org/2000/svg">
<path d="M9.61539 0C4.30966 0 0 4.30966 0 9.61539C0 14.9211 4.30966 19.2308 9.61539 19.2308C14.9211 19.2308 19.2308 14.9211 19.2308 9.61539C19.2308 4.30966 14.9211 0 9.61539 0ZM9.61539 2.71203C11.6568 2.71203 13.3136 4.36884 13.3136 6.41026C13.3136 8.45168 11.6568 10.1085 9.61539 10.1085C7.57397 10.1085 5.91716 8.45168 5.91716 6.41026C5.91716 4.36884 7.57397 2.71203 9.61539 2.71203ZM14.9606 15.5917C14.6252 15.8185 14.1617 15.7298 13.9349 15.3846C12.9684 13.9349 11.3609 13.0671 9.61539 13.0671C7.7712 13.0671 6.05523 14.0631 5.12821 15.6607C4.99014 15.8974 4.74359 16.0256 4.48718 16.0256C4.35897 16.0256 4.23077 15.9961 4.11243 15.927C3.7574 15.7199 3.63905 15.2663 3.84615 14.9211C5.02959 12.8698 7.23866 11.5976 9.61539 11.5976C11.854 11.5976 13.925 12.712 15.1677 14.5759C15.3945 14.9211 15.3057 15.3748 14.9606 15.6016V15.5917Z" fill="#A8A8A8"/>
<path d="M9.61542 8.62915C10.8409 8.62915 11.8344 7.6357 11.8344 6.41022C11.8344 5.18474 10.8409 4.19128 9.61542 4.19128C8.38994 4.19128 7.39648 5.18474 7.39648 6.41022C7.39648 7.6357 8.38994 8.62915 9.61542 8.62915Z" fill="#A8A8A8"/>
</svg>
